<svg width="32" height="32" viewBox="0 0 32 32" fill="none" xmlns="http://www.w3.org/2000/svg">
<rect y="0.00100708" width="32" height="32" rx="4" fill="#103852"/>
<path d="M23.162 22.4942H26.6197L21.6056 15.1709L28 9.02831H22.3099L9.6338 21.3817L11.9507 9.00101H8.8169L4 12.0518V15.5121L6.89437 14.2085L6.5 15.3483C6.05634 17.7303 5.60563 20.1259 5.16901 22.4942H14.4789L18.331 18.5083L19.9085 20.8357C20.2724 21.3466 20.7582 21.7648 21.3247 22.0547C21.8911 22.3447 22.5214 22.4978 23.162 22.501V22.4942ZM15.6479 14.0584L12.2887 9.00101H16.1268C16.6674 9.03077 17.1961 9.16719 17.6805 9.40191C18.1649 9.63662 18.5947 9.96469 18.9437 10.366L19.169 10.6663L15.6479 14.0584Z" fill="white"/>
</svg>
